<mxfile host="Electron" agent="Mozilla/5.0 (Windows NT 10.0; Win64; x64) AppleWebKit/537.36 (KHTML, like Gecko) draw.io/24.7.5 Chrome/126.0.6478.183 Electron/31.3.0 Safari/537.36" version="24.7.5">
  <diagram id="C5RBs43oDa-KdzZeNtuy" name="Page-1">
    <mxGraphModel dx="1027" dy="1029" grid="1" gridSize="10" guides="1" tooltips="1" connect="1" arrows="1" fold="1" page="1" pageScale="1" pageWidth="827" pageHeight="1169" math="0" shadow="0">
      <root>
        <mxCell id="WIyWlLk6GJQsqaUBKTNV-0" />
        <mxCell id="WIyWlLk6GJQsqaUBKTNV-1" parent="WIyWlLk6GJQsqaUBKTNV-0" />
        <mxCell id="zkfFHV4jXpPFQw0GAbJ--13" value="Group" style="swimlane;fontStyle=1;align=center;verticalAlign=top;childLayout=stackLayout;horizontal=1;startSize=26;horizontalStack=0;resizeParent=1;resizeLast=0;collapsible=1;marginBottom=0;rounded=0;shadow=0;strokeWidth=1;" parent="WIyWlLk6GJQsqaUBKTNV-1" vertex="1">
          <mxGeometry x="540" y="100" width="160" height="160" as="geometry">
            <mxRectangle x="340" y="380" width="170" height="26" as="alternateBounds" />
          </mxGeometry>
        </mxCell>
        <mxCell id="zkfFHV4jXpPFQw0GAbJ--14" value="+ GroupName: string" style="text;align=left;verticalAlign=top;spacingLeft=4;spacingRight=4;overflow=hidden;rotatable=0;points=[[0,0.5],[1,0.5]];portConstraint=eastwest;" parent="zkfFHV4jXpPFQw0GAbJ--13" vertex="1">
          <mxGeometry y="26" width="160" height="26" as="geometry" />
        </mxCell>
        <mxCell id="zkfFHV4jXpPFQw0GAbJ--15" value="" style="line;html=1;strokeWidth=1;align=left;verticalAlign=middle;spacingTop=-1;spacingLeft=3;spacingRight=3;rotatable=0;labelPosition=right;points=[];portConstraint=eastwest;" parent="zkfFHV4jXpPFQw0GAbJ--13" vertex="1">
          <mxGeometry y="52" width="160" height="8" as="geometry" />
        </mxCell>
        <mxCell id="A5IHCKA13RS2_OWdxki6-36" value="+ MoveGroup(dx: Int, &#xa;dy: Int): Group" style="text;align=left;verticalAlign=top;spacingLeft=4;spacingRight=4;overflow=hidden;rotatable=0;points=[[0,0.5],[1,0.5]];portConstraint=eastwest;" parent="zkfFHV4jXpPFQw0GAbJ--13" vertex="1">
          <mxGeometry y="60" width="160" height="34" as="geometry" />
        </mxCell>
        <mxCell id="A5IHCKA13RS2_OWdxki6-39" value="+ AddShapeToGroup&#xa;(s: Shape): void" style="text;align=left;verticalAlign=top;spacingLeft=4;spacingRight=4;overflow=hidden;rotatable=0;points=[[0,0.5],[1,0.5]];portConstraint=eastwest;" parent="zkfFHV4jXpPFQw0GAbJ--13" vertex="1">
          <mxGeometry y="94" width="160" height="30" as="geometry" />
        </mxCell>
        <mxCell id="A5IHCKA13RS2_OWdxki6-40" value="+ RemoveShapeFromGroup&#xa;(s: Shape): void" style="text;align=left;verticalAlign=top;spacingLeft=4;spacingRight=4;overflow=hidden;rotatable=0;points=[[0,0.5],[1,0.5]];portConstraint=eastwest;" parent="zkfFHV4jXpPFQw0GAbJ--13" vertex="1">
          <mxGeometry y="124" width="160" height="36" as="geometry" />
        </mxCell>
        <mxCell id="hGQKhDpSSb09HbbZqv9K-116" value="Triangle" style="swimlane;fontStyle=1;align=center;verticalAlign=top;childLayout=stackLayout;horizontal=1;startSize=26;horizontalStack=0;resizeParent=1;resizeLast=0;collapsible=1;marginBottom=0;rounded=0;shadow=0;strokeWidth=1;" parent="WIyWlLk6GJQsqaUBKTNV-1" vertex="1">
          <mxGeometry x="120" y="578" width="160" height="112" as="geometry">
            <mxRectangle x="340" y="380" width="170" height="26" as="alternateBounds" />
          </mxGeometry>
        </mxCell>
        <mxCell id="A5IHCKA13RS2_OWdxki6-20" value="&lt;span style=&quot;text-wrap: nowrap;&quot;&gt;+ SideA: Int&lt;/span&gt;" style="text;strokeColor=none;fillColor=none;align=left;verticalAlign=top;spacingLeft=4;spacingRight=4;overflow=hidden;rotatable=0;points=[[0,0.5],[1,0.5]];portConstraint=eastwest;whiteSpace=wrap;html=1;" parent="hGQKhDpSSb09HbbZqv9K-116" vertex="1">
          <mxGeometry y="26" width="160" height="26" as="geometry" />
        </mxCell>
        <mxCell id="A5IHCKA13RS2_OWdxki6-27" value="&lt;span style=&quot;text-wrap: nowrap;&quot;&gt;+ SideB: Int&lt;/span&gt;" style="text;strokeColor=none;fillColor=none;align=left;verticalAlign=top;spacingLeft=4;spacingRight=4;overflow=hidden;rotatable=0;points=[[0,0.5],[1,0.5]];portConstraint=eastwest;whiteSpace=wrap;html=1;" parent="hGQKhDpSSb09HbbZqv9K-116" vertex="1">
          <mxGeometry y="52" width="160" height="26" as="geometry" />
        </mxCell>
        <mxCell id="A5IHCKA13RS2_OWdxki6-28" value="&lt;span style=&quot;text-wrap: nowrap;&quot;&gt;+ SideC: Int&lt;/span&gt;" style="text;strokeColor=none;fillColor=none;align=left;verticalAlign=top;spacingLeft=4;spacingRight=4;overflow=hidden;rotatable=0;points=[[0,0.5],[1,0.5]];portConstraint=eastwest;whiteSpace=wrap;html=1;" parent="hGQKhDpSSb09HbbZqv9K-116" vertex="1">
          <mxGeometry y="78" width="160" height="26" as="geometry" />
        </mxCell>
        <mxCell id="hGQKhDpSSb09HbbZqv9K-118" value="" style="line;html=1;strokeWidth=1;align=left;verticalAlign=middle;spacingTop=-1;spacingLeft=3;spacingRight=3;rotatable=0;labelPosition=right;points=[];portConstraint=eastwest;" parent="hGQKhDpSSb09HbbZqv9K-116" vertex="1">
          <mxGeometry y="104" width="160" height="8" as="geometry" />
        </mxCell>
        <mxCell id="hGQKhDpSSb09HbbZqv9K-120" value="Circle" style="swimlane;fontStyle=1;align=center;verticalAlign=top;childLayout=stackLayout;horizontal=1;startSize=26;horizontalStack=0;resizeParent=1;resizeLast=0;collapsible=1;marginBottom=0;rounded=0;shadow=0;strokeWidth=1;" parent="WIyWlLk6GJQsqaUBKTNV-1" vertex="1">
          <mxGeometry x="333.5" y="630" width="160" height="60" as="geometry">
            <mxRectangle x="340" y="380" width="170" height="26" as="alternateBounds" />
          </mxGeometry>
        </mxCell>
        <mxCell id="A5IHCKA13RS2_OWdxki6-18" value="&lt;span style=&quot;text-wrap: nowrap;&quot;&gt;+ Radius: Double&lt;/span&gt;" style="text;strokeColor=none;fillColor=none;align=left;verticalAlign=top;spacingLeft=4;spacingRight=4;overflow=hidden;rotatable=0;points=[[0,0.5],[1,0.5]];portConstraint=eastwest;whiteSpace=wrap;html=1;" parent="hGQKhDpSSb09HbbZqv9K-120" vertex="1">
          <mxGeometry y="26" width="160" height="26" as="geometry" />
        </mxCell>
        <mxCell id="hGQKhDpSSb09HbbZqv9K-122" value="" style="line;html=1;strokeWidth=1;align=left;verticalAlign=middle;spacingTop=-1;spacingLeft=3;spacingRight=3;rotatable=0;labelPosition=right;points=[];portConstraint=eastwest;" parent="hGQKhDpSSb09HbbZqv9K-120" vertex="1">
          <mxGeometry y="52" width="160" height="8" as="geometry" />
        </mxCell>
        <mxCell id="hGQKhDpSSb09HbbZqv9K-123" value="Rectangle" style="swimlane;fontStyle=1;align=center;verticalAlign=top;childLayout=stackLayout;horizontal=1;startSize=26;horizontalStack=0;resizeParent=1;resizeLast=0;collapsible=1;marginBottom=0;rounded=0;shadow=0;strokeWidth=1;" parent="WIyWlLk6GJQsqaUBKTNV-1" vertex="1">
          <mxGeometry x="540" y="578" width="160" height="112" as="geometry">
            <mxRectangle x="340" y="380" width="170" height="26" as="alternateBounds" />
          </mxGeometry>
        </mxCell>
        <mxCell id="A5IHCKA13RS2_OWdxki6-22" value="&lt;span style=&quot;text-wrap: nowrap;&quot;&gt;+ Width: Int&lt;/span&gt;" style="text;strokeColor=none;fillColor=none;align=left;verticalAlign=top;spacingLeft=4;spacingRight=4;overflow=hidden;rotatable=0;points=[[0,0.5],[1,0.5]];portConstraint=eastwest;whiteSpace=wrap;html=1;" parent="hGQKhDpSSb09HbbZqv9K-123" vertex="1">
          <mxGeometry y="26" width="160" height="26" as="geometry" />
        </mxCell>
        <mxCell id="A5IHCKA13RS2_OWdxki6-29" value="&lt;span style=&quot;text-wrap: nowrap;&quot;&gt;+ Height: Int&lt;/span&gt;" style="text;strokeColor=none;fillColor=none;align=left;verticalAlign=top;spacingLeft=4;spacingRight=4;overflow=hidden;rotatable=0;points=[[0,0.5],[1,0.5]];portConstraint=eastwest;whiteSpace=wrap;html=1;" parent="hGQKhDpSSb09HbbZqv9K-123" vertex="1">
          <mxGeometry y="52" width="160" height="26" as="geometry" />
        </mxCell>
        <mxCell id="hGQKhDpSSb09HbbZqv9K-125" value="" style="line;html=1;strokeWidth=1;align=left;verticalAlign=middle;spacingTop=-1;spacingLeft=3;spacingRight=3;rotatable=0;labelPosition=right;points=[];portConstraint=eastwest;" parent="hGQKhDpSSb09HbbZqv9K-123" vertex="1">
          <mxGeometry y="78" width="160" height="8" as="geometry" />
        </mxCell>
        <mxCell id="A5IHCKA13RS2_OWdxki6-19" value="&lt;span style=&quot;text-wrap: nowrap;&quot;&gt;+ IsSquare(): bool&lt;/span&gt;" style="text;strokeColor=none;fillColor=none;align=left;verticalAlign=top;spacingLeft=4;spacingRight=4;overflow=hidden;rotatable=0;points=[[0,0.5],[1,0.5]];portConstraint=eastwest;whiteSpace=wrap;html=1;" parent="hGQKhDpSSb09HbbZqv9K-123" vertex="1">
          <mxGeometry y="86" width="160" height="26" as="geometry" />
        </mxCell>
        <mxCell id="hGQKhDpSSb09HbbZqv9K-126" value="ShapeCanvas" style="swimlane;fontStyle=1;align=center;verticalAlign=top;childLayout=stackLayout;horizontal=1;startSize=26;horizontalStack=0;resizeParent=1;resizeLast=0;collapsible=1;marginBottom=0;rounded=0;shadow=0;strokeWidth=1;" parent="WIyWlLk6GJQsqaUBKTNV-1" vertex="1">
          <mxGeometry x="540" y="305" width="160" height="144" as="geometry">
            <mxRectangle x="340" y="380" width="170" height="26" as="alternateBounds" />
          </mxGeometry>
        </mxCell>
        <mxCell id="hGQKhDpSSb09HbbZqv9K-129" value="" style="line;html=1;strokeWidth=1;align=left;verticalAlign=middle;spacingTop=-1;spacingLeft=3;spacingRight=3;rotatable=0;labelPosition=right;points=[];portConstraint=eastwest;" parent="hGQKhDpSSb09HbbZqv9K-126" vertex="1">
          <mxGeometry y="26" width="160" height="8" as="geometry" />
        </mxCell>
        <mxCell id="hGQKhDpSSb09HbbZqv9K-127" value="+ AddShape(s: Shape): void" style="text;align=left;verticalAlign=top;spacingLeft=4;spacingRight=4;overflow=hidden;rotatable=0;points=[[0,0.5],[1,0.5]];portConstraint=eastwest;" parent="hGQKhDpSSb09HbbZqv9K-126" vertex="1">
          <mxGeometry y="34" width="160" height="26" as="geometry" />
        </mxCell>
        <mxCell id="hGQKhDpSSb09HbbZqv9K-128" value="+ RemoveShape&#xa;(s: Shape): void" style="text;align=left;verticalAlign=top;spacingLeft=4;spacingRight=4;overflow=hidden;rotatable=0;points=[[0,0.5],[1,0.5]];portConstraint=eastwest;" parent="hGQKhDpSSb09HbbZqv9K-126" vertex="1">
          <mxGeometry y="60" width="160" height="40" as="geometry" />
        </mxCell>
        <mxCell id="euSIuoGuEI_0nKlfTqam-0" value="+ FindByName&#xa;(sname: string): Shape" style="text;align=left;verticalAlign=top;spacingLeft=4;spacingRight=4;overflow=hidden;rotatable=0;points=[[0,0.5],[1,0.5]];portConstraint=eastwest;" parent="hGQKhDpSSb09HbbZqv9K-126" vertex="1">
          <mxGeometry y="100" width="160" height="40" as="geometry" />
        </mxCell>
        <mxCell id="A5IHCKA13RS2_OWdxki6-0" value="" style="endArrow=block;endSize=16;endFill=0;html=1;rounded=0;" parent="WIyWlLk6GJQsqaUBKTNV-1" source="hGQKhDpSSb09HbbZqv9K-116" target="A5IHCKA13RS2_OWdxki6-7" edge="1">
          <mxGeometry width="160" relative="1" as="geometry">
            <mxPoint x="560" y="920" as="sourcePoint" />
            <mxPoint x="337.6470588235295" y="520" as="targetPoint" />
          </mxGeometry>
        </mxCell>
        <mxCell id="A5IHCKA13RS2_OWdxki6-1" value="" style="endArrow=block;endSize=16;endFill=0;html=1;rounded=0;" parent="WIyWlLk6GJQsqaUBKTNV-1" source="hGQKhDpSSb09HbbZqv9K-120" target="A5IHCKA13RS2_OWdxki6-7" edge="1">
          <mxGeometry x="-0.0033" width="160" relative="1" as="geometry">
            <mxPoint x="574" y="512" as="sourcePoint" />
            <mxPoint x="378.1016042780748" y="520" as="targetPoint" />
            <mxPoint as="offset" />
          </mxGeometry>
        </mxCell>
        <mxCell id="A5IHCKA13RS2_OWdxki6-2" value="" style="endArrow=block;endSize=16;endFill=0;html=1;rounded=0;" parent="WIyWlLk6GJQsqaUBKTNV-1" source="hGQKhDpSSb09HbbZqv9K-123" target="A5IHCKA13RS2_OWdxki6-7" edge="1">
          <mxGeometry x="0.0038" width="160" relative="1" as="geometry">
            <mxPoint x="687" y="530" as="sourcePoint" />
            <mxPoint x="418.55614973262027" y="520" as="targetPoint" />
            <mxPoint as="offset" />
          </mxGeometry>
        </mxCell>
        <mxCell id="A5IHCKA13RS2_OWdxki6-3" value="&amp;lt;&amp;lt;Interface&amp;gt;&amp;gt;&lt;div&gt;&lt;b&gt;IMovable&lt;/b&gt;&lt;/div&gt;" style="swimlane;fontStyle=0;childLayout=stackLayout;horizontal=1;startSize=40;fillColor=none;horizontalStack=0;resizeParent=1;resizeParentMax=0;resizeLast=0;collapsible=1;marginBottom=0;whiteSpace=wrap;html=1;" parent="WIyWlLk6GJQsqaUBKTNV-1" vertex="1">
          <mxGeometry x="310" y="100" width="140" height="90" as="geometry" />
        </mxCell>
        <mxCell id="A5IHCKA13RS2_OWdxki6-13" value="" style="line;html=1;strokeWidth=1;align=left;verticalAlign=middle;spacingTop=-1;spacingLeft=3;spacingRight=3;rotatable=0;labelPosition=right;points=[];portConstraint=eastwest;" parent="A5IHCKA13RS2_OWdxki6-3" vertex="1">
          <mxGeometry y="40" width="140" height="8" as="geometry" />
        </mxCell>
        <mxCell id="A5IHCKA13RS2_OWdxki6-5" value="+ Move(dx Int, dy Int): void" style="text;strokeColor=none;fillColor=none;align=left;verticalAlign=top;spacingLeft=4;spacingRight=4;overflow=hidden;rotatable=0;points=[[0,0.5],[1,0.5]];portConstraint=eastwest;whiteSpace=wrap;html=1;" parent="A5IHCKA13RS2_OWdxki6-3" vertex="1">
          <mxGeometry y="48" width="140" height="42" as="geometry" />
        </mxCell>
        <mxCell id="A5IHCKA13RS2_OWdxki6-7" value="&amp;lt;&amp;lt;Abstract&lt;span style=&quot;background-color: initial;&quot;&gt;&amp;gt;&amp;gt;&amp;nbsp;&lt;/span&gt;&lt;div&gt;&lt;span style=&quot;background-color: initial;&quot;&gt;&lt;b&gt;Shape&lt;/b&gt;&lt;/span&gt;&lt;/div&gt;" style="swimlane;fontStyle=0;childLayout=stackLayout;horizontal=1;startSize=40;fillColor=none;horizontalStack=0;resizeParent=1;resizeParentMax=0;resizeLast=0;collapsible=1;marginBottom=0;whiteSpace=wrap;html=1;" parent="WIyWlLk6GJQsqaUBKTNV-1" vertex="1">
          <mxGeometry x="260" y="280" width="160" height="178" as="geometry" />
        </mxCell>
        <mxCell id="A5IHCKA13RS2_OWdxki6-8" value="&lt;span style=&quot;color: rgb(0, 0, 0); font-family: Helvetica; font-size: 12px; font-style: normal; font-variant-ligatures: normal; font-variant-caps: normal; font-weight: 400; letter-spacing: normal; orphans: 2; text-align: left; text-indent: 0px; text-transform: none; widows: 2; word-spacing: 0px; -webkit-text-stroke-width: 0px; white-space: nowrap; background-color: rgb(251, 251, 251); text-decoration-thickness: initial; text-decoration-style: initial; text-decoration-color: initial; display: inline !important; float: none;&quot;&gt;+ Name: string&lt;/span&gt;" style="text;strokeColor=none;fillColor=none;align=left;verticalAlign=top;spacingLeft=4;spacingRight=4;overflow=hidden;rotatable=0;points=[[0,0.5],[1,0.5]];portConstraint=eastwest;whiteSpace=wrap;html=1;" parent="A5IHCKA13RS2_OWdxki6-7" vertex="1">
          <mxGeometry y="40" width="160" height="26" as="geometry" />
        </mxCell>
        <mxCell id="A5IHCKA13RS2_OWdxki6-9" value="&lt;span style=&quot;text-wrap: nowrap;&quot;&gt;+ Color: string&lt;/span&gt;" style="text;strokeColor=none;fillColor=none;align=left;verticalAlign=top;spacingLeft=4;spacingRight=4;overflow=hidden;rotatable=0;points=[[0,0.5],[1,0.5]];portConstraint=eastwest;whiteSpace=wrap;html=1;" parent="A5IHCKA13RS2_OWdxki6-7" vertex="1">
          <mxGeometry y="66" width="160" height="26" as="geometry" />
        </mxCell>
        <mxCell id="A5IHCKA13RS2_OWdxki6-10" value="&lt;span style=&quot;text-wrap: nowrap;&quot;&gt;+ BorderWidth: Int&lt;/span&gt;" style="text;strokeColor=none;fillColor=none;align=left;verticalAlign=top;spacingLeft=4;spacingRight=4;overflow=hidden;rotatable=0;points=[[0,0.5],[1,0.5]];portConstraint=eastwest;whiteSpace=wrap;html=1;" parent="A5IHCKA13RS2_OWdxki6-7" vertex="1">
          <mxGeometry y="92" width="160" height="26" as="geometry" />
        </mxCell>
        <mxCell id="A5IHCKA13RS2_OWdxki6-11" value="&lt;span style=&quot;text-wrap: nowrap;&quot;&gt;+ Background: Color&lt;/span&gt;" style="text;strokeColor=none;fillColor=none;align=left;verticalAlign=top;spacingLeft=4;spacingRight=4;overflow=hidden;rotatable=0;points=[[0,0.5],[1,0.5]];portConstraint=eastwest;whiteSpace=wrap;html=1;" parent="A5IHCKA13RS2_OWdxki6-7" vertex="1">
          <mxGeometry y="118" width="160" height="26" as="geometry" />
        </mxCell>
        <mxCell id="A5IHCKA13RS2_OWdxki6-12" value="" style="line;html=1;strokeWidth=1;align=left;verticalAlign=middle;spacingTop=-1;spacingLeft=3;spacingRight=3;rotatable=0;labelPosition=right;points=[];portConstraint=eastwest;" parent="A5IHCKA13RS2_OWdxki6-7" vertex="1">
          <mxGeometry y="144" width="160" height="8" as="geometry" />
        </mxCell>
        <mxCell id="A5IHCKA13RS2_OWdxki6-38" value="&lt;span style=&quot;text-wrap: nowrap;&quot;&gt;+ Move(dx: Int, dy: Int): void&lt;/span&gt;" style="text;strokeColor=none;fillColor=none;align=left;verticalAlign=top;spacingLeft=4;spacingRight=4;overflow=hidden;rotatable=0;points=[[0,0.5],[1,0.5]];portConstraint=eastwest;whiteSpace=wrap;html=1;" parent="A5IHCKA13RS2_OWdxki6-7" vertex="1">
          <mxGeometry y="152" width="160" height="26" as="geometry" />
        </mxCell>
        <mxCell id="A5IHCKA13RS2_OWdxki6-14" value="" style="endArrow=block;dashed=1;endFill=0;endSize=12;html=1;rounded=0;" parent="WIyWlLk6GJQsqaUBKTNV-1" source="zkfFHV4jXpPFQw0GAbJ--13" target="A5IHCKA13RS2_OWdxki6-3" edge="1">
          <mxGeometry width="160" relative="1" as="geometry">
            <mxPoint x="740" y="270" as="sourcePoint" />
            <mxPoint x="850" y="220" as="targetPoint" />
          </mxGeometry>
        </mxCell>
        <mxCell id="A5IHCKA13RS2_OWdxki6-15" value="" style="endArrow=block;dashed=1;endFill=0;endSize=12;html=1;rounded=0;" parent="WIyWlLk6GJQsqaUBKTNV-1" source="A5IHCKA13RS2_OWdxki6-7" target="A5IHCKA13RS2_OWdxki6-3" edge="1">
          <mxGeometry width="160" relative="1" as="geometry">
            <mxPoint x="540" y="370" as="sourcePoint" />
            <mxPoint x="656" y="406" as="targetPoint" />
          </mxGeometry>
        </mxCell>
        <mxCell id="A5IHCKA13RS2_OWdxki6-23" value="&lt;div&gt;&amp;lt;&amp;lt;Enum&amp;gt;&amp;gt;&lt;/div&gt;&lt;b&gt;Color&lt;/b&gt;" style="swimlane;fontStyle=0;childLayout=stackLayout;horizontal=1;startSize=40;fillColor=none;horizontalStack=0;resizeParent=1;resizeParentMax=0;resizeLast=0;collapsible=1;marginBottom=0;whiteSpace=wrap;html=1;" parent="WIyWlLk6GJQsqaUBKTNV-1" vertex="1">
          <mxGeometry x="150" y="100" width="100" height="92" as="geometry" />
        </mxCell>
        <mxCell id="A5IHCKA13RS2_OWdxki6-24" value="+&amp;nbsp;BLACK" style="text;strokeColor=none;fillColor=none;align=left;verticalAlign=top;spacingLeft=4;spacingRight=4;overflow=hidden;rotatable=0;points=[[0,0.5],[1,0.5]];portConstraint=eastwest;whiteSpace=wrap;html=1;" parent="A5IHCKA13RS2_OWdxki6-23" vertex="1">
          <mxGeometry y="40" width="100" height="26" as="geometry" />
        </mxCell>
        <mxCell id="A5IHCKA13RS2_OWdxki6-25" value="+ WHITE" style="text;strokeColor=none;fillColor=none;align=left;verticalAlign=top;spacingLeft=4;spacingRight=4;overflow=hidden;rotatable=0;points=[[0,0.5],[1,0.5]];portConstraint=eastwest;whiteSpace=wrap;html=1;" parent="A5IHCKA13RS2_OWdxki6-23" vertex="1">
          <mxGeometry y="66" width="100" height="26" as="geometry" />
        </mxCell>
        <mxCell id="A5IHCKA13RS2_OWdxki6-31" value="" style="endArrow=diamondThin;endFill=0;endSize=24;html=1;rounded=0;" parent="WIyWlLk6GJQsqaUBKTNV-1" source="A5IHCKA13RS2_OWdxki6-7" target="hGQKhDpSSb09HbbZqv9K-126" edge="1">
          <mxGeometry width="160" relative="1" as="geometry">
            <mxPoint x="600" y="620" as="sourcePoint" />
            <mxPoint x="830" y="562" as="targetPoint" />
          </mxGeometry>
        </mxCell>
        <mxCell id="A5IHCKA13RS2_OWdxki6-34" value="" style="endArrow=open;endFill=1;endSize=12;html=1;rounded=0;" parent="WIyWlLk6GJQsqaUBKTNV-1" source="A5IHCKA13RS2_OWdxki6-7" target="A5IHCKA13RS2_OWdxki6-23" edge="1">
          <mxGeometry width="160" relative="1" as="geometry">
            <mxPoint x="50" y="530" as="sourcePoint" />
            <mxPoint x="210" y="530" as="targetPoint" />
          </mxGeometry>
        </mxCell>
        <mxCell id="A5IHCKA13RS2_OWdxki6-35" value="0..*" style="edgeLabel;html=1;align=center;verticalAlign=middle;resizable=0;points=[];" parent="A5IHCKA13RS2_OWdxki6-34" vertex="1" connectable="0">
          <mxGeometry x="-0.7599" y="-2" relative="1" as="geometry">
            <mxPoint x="-14" y="7" as="offset" />
          </mxGeometry>
        </mxCell>
        <mxCell id="WDsxZKMpJUlfHdA2tdf5-0" value="1..*" style="edgeLabel;html=1;align=center;verticalAlign=middle;resizable=0;points=[];" parent="A5IHCKA13RS2_OWdxki6-34" vertex="1" connectable="0">
          <mxGeometry x="0.7592" y="-4" relative="1" as="geometry">
            <mxPoint x="12" as="offset" />
          </mxGeometry>
        </mxCell>
        <mxCell id="SRWYEKsoaU0fZLNsfDZi-6" value="&lt;div&gt;&lt;b style=&quot;background-color: initial;&quot;&gt;The shapes can exist, but if there is no shape than group can not be created,&amp;nbsp;&lt;/b&gt;&lt;/div&gt;&lt;div&gt;&lt;b style=&quot;background-color: initial;&quot;&gt;because it dont make any sence to have group without any shapes&amp;nbsp;&amp;nbsp;&lt;/b&gt;&lt;/div&gt;" style="text;html=1;align=center;verticalAlign=middle;resizable=0;points=[];autosize=1;strokeColor=none;fillColor=none;" parent="WIyWlLk6GJQsqaUBKTNV-1" vertex="1">
          <mxGeometry x="375" y="40" width="460" height="40" as="geometry" />
        </mxCell>
        <mxCell id="VpKnPIbJpVQBUbsjq4H_-1" value="" style="endArrow=open;endFill=1;endSize=12;html=1;rounded=0;" edge="1" parent="WIyWlLk6GJQsqaUBKTNV-1" source="A5IHCKA13RS2_OWdxki6-7" target="zkfFHV4jXpPFQw0GAbJ--13">
          <mxGeometry width="160" relative="1" as="geometry">
            <mxPoint x="370" y="350" as="sourcePoint" />
            <mxPoint x="530" y="350" as="targetPoint" />
          </mxGeometry>
        </mxCell>
      </root>
    </mxGraphModel>
  </diagram>
</mxfile>
